<?xml version="1.0" encoding="iso-8859-1"?>
<!-- Generator: Adobe Illustrator 19.0.0, SVG Export Plug-In . SVG Version: 6.00 Build 0)  -->
<svg version="1.1" id="Layer_1" xmlns="http://www.w3.org/2000/svg" xmlns:xlink="http://www.w3.org/1999/xlink" x="0px" y="0px"
	 viewBox="0 0 511.982 511.982" style="enable-background:new 0 0 511.982 511.982;" xml:space="preserve">
<path style="fill:#EC87C0;" d="M501.295,191.993H223.992c-5.898,0-10.68,4.766-10.68,10.656v213.335
	c0,5.906,4.781,10.656,10.68,10.656h170.65l74.654,42.686v-42.685h31.998c5.906,0,10.688-4.75,10.688-10.656V202.65
	C511.982,196.759,507.201,191.993,501.295,191.993z"/>
<path style="fill:#D770AD;" d="M223.992,191.993c-5.898,0-10.68,4.766-10.68,10.656v138.683h159.987
	c5.906,0,10.688-4.781,10.688-10.688V191.993H223.992z"/>
<path style="fill:#AC92EB;" d="M351.988,42.655H10.656C4.758,42.655,0,47.436,0,53.327v256.006c0,5.875,4.758,10.656,10.656,10.656
	h31.999v63.998l115.191-63.998h194.142c5.875,0,10.656-4.781,10.656-10.656V53.326C362.644,47.436,357.863,42.655,351.988,42.655z"
	/>
<path style="fill:#F5F7FA;" d="M216.883,106.653c-13.929,0-26.522,5.734-35.553,14.953c-9.039-9.218-21.625-14.953-35.562-14.953
	c-27.483,0-49.772,22.296-49.772,49.779c0,56.889,85.333,106.653,85.333,106.653s85.325-49.764,85.325-106.653
	C266.655,128.949,244.374,106.653,216.883,106.653z"/>
<g style="opacity:0.1;">
	<path d="M216.883,106.653c-3.664,0-7.234,0.406-10.671,1.156c22.366,4.891,39.116,24.796,39.116,48.623
		c0,44.312-51.779,84.31-74.669,99.825c6.5,4.406,10.672,6.828,10.672,6.828s85.325-49.764,85.325-106.653
		C266.655,128.949,244.374,106.653,216.883,106.653z"/>
</g>
<g>
</g>
<g>
</g>
<g>
</g>
<g>
</g>
<g>
</g>
<g>
</g>
<g>
</g>
<g>
</g>
<g>
</g>
<g>
</g>
<g>
</g>
<g>
</g>
<g>
</g>
<g>
</g>
<g>
</g>
</svg>
